<svg xmlns="http://www.w3.org/2000/svg" xmlns:xlink="http://www.w3.org/1999/xlink" width="2000" zoomAndPan="magnify" viewBox="0 0 1500 1499.999933" height="2000" preserveAspectRatio="xMidYMid meet" version="1.0"><defs><g/><clipPath id="d49770293f"><path d="M 1 53 L 521 53 L 521 404.28125 L 1 404.28125 Z M 1 53 " clip-rule="nonzero"/></clipPath><clipPath id="8d0c1c5af8"><path d="M 520.660156 104.835938 L 512.375 94.695312 C 494.667969 73.023438 447.199219 38.03125 394.285156 60.738281 C 352.636719 78.613281 339.929688 121.230469 336.285156 151.0625 C 319.324219 131.746094 291.039062 110.941406 246.703125 107.917969 C 169.535156 102.65625 24.140625 107.679688 17.988281 107.898438 L 6.898438 108.289062 L 7.355469 119.382812 C 7.46875 122.234375 10.828125 189.699219 64.1875 235.132812 C 93.183594 259.820312 130.921875 272.949219 176.761719 274.390625 L 112.144531 311.019531 L 107.4375 313.6875 L 96.378906 319.957031 L 1.046875 374.003906 L 10.136719 384.21875 C 11.292969 385.519531 28.707031 404.246094 68.964844 404.246094 C 94.4375 404.246094 129.089844 396.695312 174.507812 372.546875 C 179.160156 374.449219 183.972656 376.308594 188.945312 378.078125 C 218.269531 388.519531 246.5625 393.722656 273.269531 393.722656 C 307 393.71875 338.1875 385.414062 365.675781 368.867188 C 415.074219 339.128906 444.921875 289.414062 452 225.09375 C 455.898438 189.648438 451.933594 159.222656 449.460938 145.1875 Z M 402.972656 81.03125 C 412.421875 76.980469 421.484375 75.324219 430.003906 75.324219 C 454.726562 75.324219 474.800781 89.292969 485.898438 99.164062 L 357.027344 172.203125 C 357.296875 151.191406 362.175781 98.542969 402.972656 81.03125 Z M 78.675781 218.480469 C 44.589844 189.574219 33.976562 148.949219 30.753906 129.585938 C 67.824219 128.480469 181.832031 125.628906 245.199219 129.945312 C 299.664062 133.664062 324.910156 169.351562 333.613281 185.472656 L 219.058594 250.414062 C 159.023438 257.277344 111.78125 246.554688 78.675781 218.480469 Z M 338.644531 207.996094 C 340.859375 240.503906 336.839844 299.84375 284.863281 331.132812 C 232.609375 362.597656 171.503906 338.296875 139.539062 320.863281 Z M 40.074219 377.257812 L 109.605469 337.835938 C 116.929688 342.839844 130.621094 351.625 148.78125 360.792969 C 91.207031 387.953125 57.046875 383.699219 40.074219 377.257812 Z M 430.003906 223.320312 C 423.496094 281.023438 398.027344 323.625 354.3125 349.945312 C 328.21875 365.652344 300.605469 371.570312 273.78125 371.570312 C 261.398438 371.566406 249.195312 370.292969 237.386719 368.148438 C 256.9375 366.9375 276.980469 361.648438 296.230469 350.054688 C 364.652344 308.871094 363.558594 229.3125 359.6875 196.070312 L 428.933594 156.824219 C 430.992188 171.617188 433.078125 196.0625 430.003906 223.320312 Z M 410.480469 105.71875 C 410.480469 111.410156 405.871094 116.023438 400.183594 116.023438 C 394.496094 116.023438 389.886719 111.410156 389.886719 105.71875 C 389.886719 100.023438 394.496094 95.410156 400.183594 95.410156 C 405.871094 95.410156 410.480469 100.023438 410.480469 105.71875 Z M 410.480469 105.71875 " clip-rule="nonzero"/></clipPath><linearGradient x1="0" gradientTransform="matrix(1.468648, 0, 0, 1.470119, 1.048694, 53.363503)" y1="119.336998" x2="353.802" gradientUnits="userSpaceOnUse" y2="119.336998" id="7834dfabe1"><stop stop-opacity="1" stop-color="rgb(90.589905%, 83.139038%, 61.959839%)" offset="0"/><stop stop-opacity="1" stop-color="rgb(90.565491%, 83.081055%, 61.860657%)" offset="0.0078125"/><stop stop-opacity="1" stop-color="rgb(90.519714%, 82.965088%, 61.665344%)" offset="0.015625"/><stop stop-opacity="1" stop-color="rgb(90.473938%, 82.847595%, 61.468506%)" offset="0.0234375"/><stop stop-opacity="1" stop-color="rgb(90.428162%, 82.731628%, 61.273193%)" offset="0.03125"/><stop stop-opacity="1" stop-color="rgb(90.382385%, 82.615662%, 61.076355%)" offset="0.0390625"/><stop stop-opacity="1" stop-color="rgb(90.336609%, 82.498169%, 60.881042%)" offset="0.046875"/><stop stop-opacity="1" stop-color="rgb(90.290833%, 82.382202%, 60.684204%)" offset="0.0546875"/><stop stop-opacity="1" stop-color="rgb(90.245056%, 82.266235%, 60.488892%)" offset="0.0625"/><stop stop-opacity="1" stop-color="rgb(90.19928%, 82.150269%, 60.292053%)" offset="0.0703125"/><stop stop-opacity="1" stop-color="rgb(90.153503%, 82.032776%, 60.095215%)" offset="0.078125"/><stop stop-opacity="1" stop-color="rgb(90.106201%, 81.916809%, 59.899902%)" offset="0.0859375"/><stop stop-opacity="1" stop-color="rgb(90.060425%, 81.800842%, 59.703064%)" offset="0.09375"/><stop stop-opacity="1" stop-color="rgb(90.014648%, 81.68335%, 59.507751%)" offset="0.101563"/><stop stop-opacity="1" stop-color="rgb(89.968872%, 81.567383%, 59.310913%)" offset="0.109375"/><stop stop-opacity="1" stop-color="rgb(89.923096%, 81.451416%, 59.115601%)" offset="0.117188"/><stop stop-opacity="1" stop-color="rgb(89.877319%, 81.335449%, 58.918762%)" offset="0.125"/><stop stop-opacity="1" stop-color="rgb(89.831543%, 81.217957%, 58.72345%)" offset="0.132812"/><stop stop-opacity="1" stop-color="rgb(89.785767%, 81.10199%, 58.526611%)" offset="0.140625"/><stop stop-opacity="1" stop-color="rgb(89.73999%, 80.986023%, 58.331299%)" offset="0.148438"/><stop stop-opacity="1" stop-color="rgb(89.692688%, 80.86853%, 58.13446%)" offset="0.15625"/><stop stop-opacity="1" stop-color="rgb(89.646912%, 80.752563%, 57.939148%)" offset="0.164062"/><stop stop-opacity="1" stop-color="rgb(89.601135%, 80.636597%, 57.74231%)" offset="0.171875"/><stop stop-opacity="1" stop-color="rgb(89.555359%, 80.52063%, 57.546997%)" offset="0.179687"/><stop stop-opacity="1" stop-color="rgb(89.509583%, 80.403137%, 57.350159%)" offset="0.1875"/><stop stop-opacity="1" stop-color="rgb(89.463806%, 80.28717%, 57.154846%)" offset="0.195313"/><stop stop-opacity="1" stop-color="rgb(89.41803%, 80.171204%, 56.958008%)" offset="0.203125"/><stop stop-opacity="1" stop-color="rgb(89.372253%, 80.053711%, 56.762695%)" offset="0.210938"/><stop stop-opacity="1" stop-color="rgb(89.326477%, 79.937744%, 56.565857%)" offset="0.21875"/><stop stop-opacity="1" stop-color="rgb(89.279175%, 79.821777%, 56.370544%)" offset="0.226562"/><stop stop-opacity="1" stop-color="rgb(89.233398%, 79.704285%, 56.173706%)" offset="0.234375"/><stop stop-opacity="1" stop-color="rgb(89.187622%, 79.588318%, 55.978394%)" offset="0.242188"/><stop stop-opacity="1" stop-color="rgb(89.141846%, 79.472351%, 55.781555%)" offset="0.25"/><stop stop-opacity="1" stop-color="rgb(89.096069%, 79.356384%, 55.586243%)" offset="0.257812"/><stop stop-opacity="1" stop-color="rgb(89.050293%, 79.238892%, 55.389404%)" offset="0.265625"/><stop stop-opacity="1" stop-color="rgb(89.004517%, 79.122925%, 55.194092%)" offset="0.273438"/><stop stop-opacity="1" stop-color="rgb(88.95874%, 79.006958%, 54.997253%)" offset="0.28125"/><stop stop-opacity="1" stop-color="rgb(88.912964%, 78.889465%, 54.801941%)" offset="0.289062"/><stop stop-opacity="1" stop-color="rgb(88.867188%, 78.773499%, 54.605103%)" offset="0.296875"/><stop stop-opacity="1" stop-color="rgb(88.819885%, 78.657532%, 54.40979%)" offset="0.304688"/><stop stop-opacity="1" stop-color="rgb(88.774109%, 78.541565%, 54.212952%)" offset="0.3125"/><stop stop-opacity="1" stop-color="rgb(88.728333%, 78.424072%, 54.017639%)" offset="0.320312"/><stop stop-opacity="1" stop-color="rgb(88.682556%, 78.308105%, 53.820801%)" offset="0.328125"/><stop stop-opacity="1" stop-color="rgb(88.63678%, 78.192139%, 53.625488%)" offset="0.335937"/><stop stop-opacity="1" stop-color="rgb(88.591003%, 78.074646%, 53.42865%)" offset="0.34375"/><stop stop-opacity="1" stop-color="rgb(88.545227%, 77.958679%, 53.233337%)" offset="0.351562"/><stop stop-opacity="1" stop-color="rgb(88.499451%, 77.842712%, 53.036499%)" offset="0.359375"/><stop stop-opacity="1" stop-color="rgb(88.453674%, 77.726746%, 52.841187%)" offset="0.367187"/><stop stop-opacity="1" stop-color="rgb(88.406372%, 77.609253%, 52.644348%)" offset="0.375"/><stop stop-opacity="1" stop-color="rgb(88.360596%, 77.493286%, 52.44751%)" offset="0.382813"/><stop stop-opacity="1" stop-color="rgb(88.314819%, 77.377319%, 52.252197%)" offset="0.390625"/><stop stop-opacity="1" stop-color="rgb(88.269043%, 77.259827%, 52.055359%)" offset="0.398438"/><stop stop-opacity="1" stop-color="rgb(88.223267%, 77.14386%, 51.860046%)" offset="0.40625"/><stop stop-opacity="1" stop-color="rgb(88.17749%, 77.027893%, 51.663208%)" offset="0.414063"/><stop stop-opacity="1" stop-color="rgb(88.131714%, 76.911926%, 51.467896%)" offset="0.421875"/><stop stop-opacity="1" stop-color="rgb(88.085938%, 76.794434%, 51.271057%)" offset="0.429688"/><stop stop-opacity="1" stop-color="rgb(88.040161%, 76.678467%, 51.075745%)" offset="0.4375"/><stop stop-opacity="1" stop-color="rgb(87.994385%, 76.5625%, 50.878906%)" offset="0.445312"/><stop stop-opacity="1" stop-color="rgb(87.947083%, 76.445007%, 50.683594%)" offset="0.453125"/><stop stop-opacity="1" stop-color="rgb(87.901306%, 76.329041%, 50.486755%)" offset="0.460938"/><stop stop-opacity="1" stop-color="rgb(87.85553%, 76.213074%, 50.291443%)" offset="0.46875"/><stop stop-opacity="1" stop-color="rgb(87.809753%, 76.097107%, 50.094604%)" offset="0.476562"/><stop stop-opacity="1" stop-color="rgb(87.763977%, 75.979614%, 49.899292%)" offset="0.484375"/><stop stop-opacity="1" stop-color="rgb(87.718201%, 75.863647%, 49.702454%)" offset="0.492188"/><stop stop-opacity="1" stop-color="rgb(87.672424%, 75.747681%, 49.507141%)" offset="0.5"/><stop stop-opacity="1" stop-color="rgb(87.626648%, 75.630188%, 49.310303%)" offset="0.507812"/><stop stop-opacity="1" stop-color="rgb(87.580872%, 75.514221%, 49.11499%)" offset="0.515625"/><stop stop-opacity="1" stop-color="rgb(87.533569%, 75.398254%, 48.918152%)" offset="0.523438"/><stop stop-opacity="1" stop-color="rgb(87.487793%, 75.282288%, 48.722839%)" offset="0.53125"/><stop stop-opacity="1" stop-color="rgb(87.442017%, 75.164795%, 48.526001%)" offset="0.539062"/><stop stop-opacity="1" stop-color="rgb(87.39624%, 75.048828%, 48.330688%)" offset="0.546875"/><stop stop-opacity="1" stop-color="rgb(87.350464%, 74.932861%, 48.13385%)" offset="0.554688"/><stop stop-opacity="1" stop-color="rgb(87.304688%, 74.815369%, 47.938538%)" offset="0.5625"/><stop stop-opacity="1" stop-color="rgb(87.258911%, 74.699402%, 47.741699%)" offset="0.570312"/><stop stop-opacity="1" stop-color="rgb(87.213135%, 74.583435%, 47.546387%)" offset="0.578125"/><stop stop-opacity="1" stop-color="rgb(87.167358%, 74.467468%, 47.349548%)" offset="0.585938"/><stop stop-opacity="1" stop-color="rgb(87.121582%, 74.349976%, 47.154236%)" offset="0.59375"/><stop stop-opacity="1" stop-color="rgb(87.07428%, 74.234009%, 46.957397%)" offset="0.601562"/><stop stop-opacity="1" stop-color="rgb(87.028503%, 74.118042%, 46.762085%)" offset="0.609375"/><stop stop-opacity="1" stop-color="rgb(86.982727%, 74.000549%, 46.565247%)" offset="0.617188"/><stop stop-opacity="1" stop-color="rgb(86.936951%, 73.884583%, 46.369934%)" offset="0.625"/><stop stop-opacity="1" stop-color="rgb(86.891174%, 73.768616%, 46.173096%)" offset="0.632812"/><stop stop-opacity="1" stop-color="rgb(86.845398%, 73.651123%, 45.977783%)" offset="0.640625"/><stop stop-opacity="1" stop-color="rgb(86.799622%, 73.535156%, 45.780945%)" offset="0.648437"/><stop stop-opacity="1" stop-color="rgb(86.753845%, 73.419189%, 45.585632%)" offset="0.65625"/><stop stop-opacity="1" stop-color="rgb(86.708069%, 73.303223%, 45.388794%)" offset="0.664062"/><stop stop-opacity="1" stop-color="rgb(86.660767%, 73.18573%, 45.193481%)" offset="0.671875"/><stop stop-opacity="1" stop-color="rgb(86.61499%, 73.069763%, 44.996643%)" offset="0.679687"/><stop stop-opacity="1" stop-color="rgb(86.569214%, 72.953796%, 44.801331%)" offset="0.6875"/><stop stop-opacity="1" stop-color="rgb(86.523438%, 72.836304%, 44.604492%)" offset="0.695312"/><stop stop-opacity="1" stop-color="rgb(86.477661%, 72.720337%, 44.407654%)" offset="0.703125"/><stop stop-opacity="1" stop-color="rgb(86.431885%, 72.60437%, 44.212341%)" offset="0.710937"/><stop stop-opacity="1" stop-color="rgb(86.386108%, 72.488403%, 44.015503%)" offset="0.71875"/><stop stop-opacity="1" stop-color="rgb(86.340332%, 72.370911%, 43.82019%)" offset="0.726562"/><stop stop-opacity="1" stop-color="rgb(86.294556%, 72.254944%, 43.623352%)" offset="0.734375"/><stop stop-opacity="1" stop-color="rgb(86.248779%, 72.138977%, 43.42804%)" offset="0.742187"/><stop stop-opacity="1" stop-color="rgb(86.201477%, 72.021484%, 43.231201%)" offset="0.75"/><stop stop-opacity="1" stop-color="rgb(86.155701%, 71.905518%, 43.035889%)" offset="0.757813"/><stop stop-opacity="1" stop-color="rgb(86.109924%, 71.789551%, 42.83905%)" offset="0.765625"/><stop stop-opacity="1" stop-color="rgb(86.064148%, 71.673584%, 42.643738%)" offset="0.773438"/><stop stop-opacity="1" stop-color="rgb(86.018372%, 71.556091%, 42.446899%)" offset="0.78125"/><stop stop-opacity="1" stop-color="rgb(85.972595%, 71.440125%, 42.251587%)" offset="0.789063"/><stop stop-opacity="1" stop-color="rgb(85.926819%, 71.324158%, 42.054749%)" offset="0.796875"/><stop stop-opacity="1" stop-color="rgb(85.881042%, 71.206665%, 41.859436%)" offset="0.804688"/><stop stop-opacity="1" stop-color="rgb(85.835266%, 71.090698%, 41.662598%)" offset="0.8125"/><stop stop-opacity="1" stop-color="rgb(85.787964%, 70.974731%, 41.467285%)" offset="0.820313"/><stop stop-opacity="1" stop-color="rgb(85.742188%, 70.858765%, 41.270447%)" offset="0.828125"/><stop stop-opacity="1" stop-color="rgb(85.696411%, 70.741272%, 41.075134%)" offset="0.835938"/><stop stop-opacity="1" stop-color="rgb(85.650635%, 70.625305%, 40.878296%)" offset="0.84375"/><stop stop-opacity="1" stop-color="rgb(85.604858%, 70.509338%, 40.682983%)" offset="0.851563"/><stop stop-opacity="1" stop-color="rgb(85.559082%, 70.391846%, 40.486145%)" offset="0.859375"/><stop stop-opacity="1" stop-color="rgb(85.513306%, 70.275879%, 40.290833%)" offset="0.867188"/><stop stop-opacity="1" stop-color="rgb(85.467529%, 70.159912%, 40.093994%)" offset="0.875"/><stop stop-opacity="1" stop-color="rgb(85.421753%, 70.043945%, 39.898682%)" offset="0.882812"/><stop stop-opacity="1" stop-color="rgb(85.375977%, 69.926453%, 39.701843%)" offset="0.890625"/><stop stop-opacity="1" stop-color="rgb(85.328674%, 69.810486%, 39.506531%)" offset="0.898438"/><stop stop-opacity="1" stop-color="rgb(85.282898%, 69.694519%, 39.309692%)" offset="0.90625"/><stop stop-opacity="1" stop-color="rgb(85.237122%, 69.577026%, 39.11438%)" offset="0.914062"/><stop stop-opacity="1" stop-color="rgb(85.191345%, 69.46106%, 38.917542%)" offset="0.921875"/><stop stop-opacity="1" stop-color="rgb(85.145569%, 69.345093%, 38.722229%)" offset="0.929688"/><stop stop-opacity="1" stop-color="rgb(85.099792%, 69.229126%, 38.525391%)" offset="0.9375"/><stop stop-opacity="1" stop-color="rgb(85.054016%, 69.111633%, 38.330078%)" offset="0.945312"/><stop stop-opacity="1" stop-color="rgb(85.00824%, 68.995667%, 38.13324%)" offset="0.953125"/><stop stop-opacity="1" stop-color="rgb(84.962463%, 68.8797%, 37.937927%)" offset="0.960938"/><stop stop-opacity="1" stop-color="rgb(84.915161%, 68.762207%, 37.741089%)" offset="0.96875"/><stop stop-opacity="1" stop-color="rgb(84.869385%, 68.64624%, 37.545776%)" offset="0.976562"/><stop stop-opacity="1" stop-color="rgb(84.823608%, 68.530273%, 37.348938%)" offset="0.984375"/><stop stop-opacity="1" stop-color="rgb(84.777832%, 68.414307%, 37.153625%)" offset="0.992188"/><stop stop-opacity="1" stop-color="rgb(84.732056%, 68.296814%, 36.956787%)" offset="1"/></linearGradient><clipPath id="6baf7311b5"><rect x="0" width="1188" y="0" height="441"/></clipPath></defs><g transform="matrix(1, 0, 0, 1, 133, 529)"><g clip-path="url(#6baf7311b5)"><path stroke-linecap="round" transform="matrix(0, -1.303227, 1.303227, 0, 662.246421, 429.516193)" fill="none" stroke-linejoin="miter" d="M 1.99968 1.998993 L 318.000159 1.998993 " stroke="#d8ae5e" stroke-width="4" stroke-opacity="1" stroke-miterlimit="4"/><g clip-path="url(#d49770293f)"><g clip-path="url(#8d0c1c5af8)"><path fill="url(#7834dfabe1)" d="M 1.046875 38.074219 L 1.046875 404.246094 L 520.660156 404.246094 L 520.660156 38.074219 Z M 1.046875 38.074219 " fill-rule="nonzero"/></g></g><g fill="#ffffff" fill-opacity="1"><g transform="translate(853.577817, 179.296683)"><g><path d="M 99.046875 -72.5625 L 128.859375 -72.5625 L 128.859375 -70.484375 L 127.8125 -70.484375 C 126.707031 -70.484375 125.738281 -70.097656 124.90625 -69.328125 C 124.070312 -68.566406 123.375 -67.628906 122.8125 -66.515625 C 122.257812 -65.398438 121.804688 -64.21875 121.453125 -62.96875 C 121.109375 -61.71875 120.9375 -60.609375 120.9375 -59.640625 L 120.9375 -3.75 C 118.4375 -2.78125 115.585938 -1.945312 112.390625 -1.25 C 109.191406 -0.550781 105.851562 0.0351562 102.375 0.515625 C 98.90625 1.003906 95.363281 1.382812 91.75 1.65625 C 88.132812 1.9375 84.796875 2.078125 81.734375 2.078125 C 69.222656 2.078125 58.3125 -0.00390625 49 -4.171875 C 39.6875 -8.335938 31.972656 -13.789062 25.859375 -20.53125 C 19.742188 -27.28125 15.191406 -34.894531 12.203125 -43.375 C 9.210938 -51.851562 7.71875 -60.398438 7.71875 -69.015625 C 7.71875 -77.640625 9.210938 -86.191406 12.203125 -94.671875 C 15.191406 -103.148438 19.773438 -110.722656 25.953125 -117.390625 C 32.140625 -124.066406 39.925781 -129.453125 49.3125 -133.546875 C 58.695312 -137.648438 69.851562 -139.703125 82.78125 -139.703125 C 87.644531 -139.703125 92.160156 -139.285156 96.328125 -138.453125 C 100.503906 -137.617188 104.191406 -136.851562 107.390625 -136.15625 C 109.191406 -135.738281 110.753906 -135.359375 112.078125 -135.015625 C 113.398438 -134.671875 114.546875 -134.5 115.515625 -134.5 L 117.390625 -134.5 L 117.390625 -112.390625 L 115.3125 -112.390625 C 114.476562 -116.703125 112.84375 -120.175781 110.40625 -122.8125 C 107.976562 -125.457031 105.164062 -127.472656 101.96875 -128.859375 C 98.769531 -130.253906 95.394531 -131.191406 91.84375 -131.671875 C 88.300781 -132.160156 85.003906 -132.40625 81.953125 -132.40625 C 71.523438 -132.40625 62.488281 -130.5625 54.84375 -126.875 C 47.195312 -123.195312 40.941406 -118.4375 36.078125 -112.59375 C 31.210938 -106.757812 27.597656 -100.191406 25.234375 -92.890625 C 22.867188 -85.597656 21.6875 -78.335938 21.6875 -71.109375 C 21.6875 -63.046875 23.210938 -55.085938 26.265625 -47.234375 C 29.328125 -39.378906 33.640625 -32.359375 39.203125 -26.171875 C 44.765625 -19.984375 51.472656 -14.976562 59.328125 -11.15625 C 67.179688 -7.332031 75.898438 -5.421875 85.484375 -5.421875 C 88.128906 -5.421875 91.394531 -5.734375 95.28125 -6.359375 C 99.175781 -6.984375 103.070312 -8.410156 106.96875 -10.640625 L 106.96875 -59.640625 C 106.96875 -60.609375 106.828125 -61.71875 106.546875 -62.96875 C 106.273438 -64.21875 105.828125 -65.398438 105.203125 -66.515625 C 104.578125 -67.628906 103.84375 -68.566406 103 -69.328125 C 102.164062 -70.097656 101.195312 -70.484375 100.09375 -70.484375 L 99.046875 -70.484375 Z M 99.046875 -72.5625 "/></g></g></g><g fill="#ffffff" fill-opacity="1"><g transform="translate(986.402775, 179.296683)"><g><path d="M 9.390625 -2.078125 L 10.421875 -2.078125 C 11.535156 -2.078125 12.507812 -2.457031 13.34375 -3.21875 C 14.175781 -3.988281 14.90625 -4.929688 15.53125 -6.046875 C 16.15625 -7.160156 16.640625 -8.34375 16.984375 -9.59375 C 17.335938 -10.84375 17.515625 -12.023438 17.515625 -13.140625 L 17.515625 -124.6875 C 17.515625 -125.664062 17.335938 -126.78125 16.984375 -128.03125 C 16.640625 -129.28125 16.15625 -130.457031 15.53125 -131.5625 C 14.90625 -132.675781 14.175781 -133.613281 13.34375 -134.375 C 12.507812 -135.144531 11.535156 -135.53125 10.421875 -135.53125 L 9.390625 -135.53125 L 9.390625 -137.625 L 39.40625 -137.625 L 39.40625 -135.53125 L 38.359375 -135.53125 C 37.253906 -135.53125 36.285156 -135.144531 35.453125 -134.375 C 34.617188 -133.613281 33.921875 -132.675781 33.359375 -131.5625 C 32.804688 -130.457031 32.351562 -129.28125 32 -128.03125 C 31.65625 -126.78125 31.484375 -125.664062 31.484375 -124.6875 L 31.484375 -7.71875 L 77.15625 -7.71875 C 79.789062 -7.71875 82.082031 -8.34375 84.03125 -9.59375 C 85.976562 -10.84375 87.609375 -12.40625 88.921875 -14.28125 C 90.242188 -16.15625 91.21875 -18.171875 91.84375 -20.328125 C 92.476562 -22.484375 92.796875 -24.460938 92.796875 -26.265625 L 94.875 -26.265625 L 94.875 0 L 9.390625 0 Z M 9.390625 -2.078125 "/></g></g></g><g fill="#ffffff" fill-opacity="1"><g transform="translate(1079.192584, 179.296683)"><g><path d="M 0.625 -137.625 L 29.40625 -137.625 L 29.40625 -135.53125 C 28.425781 -135.394531 27.519531 -134.976562 26.6875 -134.28125 C 25.851562 -133.582031 25.4375 -132.539062 25.4375 -131.15625 C 25.4375 -130.457031 25.644531 -129.691406 26.0625 -128.859375 L 57.34375 -74.015625 L 87.375 -125.9375 C 87.925781 -127.050781 88.304688 -127.882812 88.515625 -128.4375 C 88.722656 -129 88.828125 -129.695312 88.828125 -130.53125 C 88.546875 -132.75 87.742188 -134.132812 86.421875 -134.6875 C 85.109375 -135.25 84.3125 -135.53125 84.03125 -135.53125 L 84.03125 -137.625 L 106.34375 -137.625 L 106.34375 -135.53125 C 104.257812 -135.53125 102.140625 -134.242188 99.984375 -131.671875 C 97.828125 -129.097656 95.984375 -126.492188 94.453125 -123.859375 L 61.921875 -67.5625 L 61.921875 -13.546875 C 61.921875 -12.441406 62.09375 -11.257812 62.4375 -10 C 62.789062 -8.75 63.242188 -7.535156 63.796875 -6.359375 C 64.359375 -5.179688 65.054688 -4.171875 65.890625 -3.328125 C 66.722656 -2.492188 67.695312 -2.078125 68.8125 -2.078125 L 69.859375 -2.078125 L 69.859375 0 L 40.03125 0 L 40.03125 -2.078125 L 41.078125 -2.078125 C 42.191406 -2.078125 43.164062 -2.457031 44 -3.21875 C 44.832031 -3.988281 45.5625 -4.960938 46.1875 -6.140625 C 46.8125 -7.328125 47.257812 -8.582031 47.53125 -9.90625 C 47.8125 -11.226562 47.953125 -12.441406 47.953125 -13.546875 L 47.953125 -65.6875 L 14.390625 -123.234375 C 13.691406 -124.347656 12.851562 -125.597656 11.875 -126.984375 C 10.90625 -128.378906 9.863281 -129.703125 8.75 -130.953125 C 7.644531 -132.203125 6.46875 -133.273438 5.21875 -134.171875 C 3.96875 -135.078125 2.785156 -135.53125 1.671875 -135.53125 L 0.625 -135.53125 Z M 0.625 -137.625 "/></g></g></g><g fill="#ffffff" fill-opacity="1"><g transform="translate(854.616326, 387.812981)"><g><path d="M 26.484375 -130.328125 C 26.484375 -129.492188 26.691406 -128.445312 27.109375 -127.1875 L 63.8125 -28.359375 L 100.5 -128.234375 C 100.644531 -128.515625 100.785156 -128.929688 100.921875 -129.484375 C 101.054688 -130.046875 101.125 -130.460938 101.125 -130.734375 C 101.125 -132.398438 100.460938 -133.613281 99.140625 -134.375 C 97.828125 -135.144531 96.613281 -135.53125 95.5 -135.53125 L 95.5 -137.625 L 118.234375 -137.625 L 118.234375 -135.53125 C 116.140625 -135.53125 114.222656 -134.972656 112.484375 -133.859375 C 110.753906 -132.753906 109.398438 -130.878906 108.421875 -128.234375 L 60.671875 2.5 L 11.890625 -127.609375 C 11.054688 -129.691406 9.835938 -131.5 8.234375 -133.03125 C 6.640625 -134.5625 4.660156 -135.394531 2.296875 -135.53125 L 2.296875 -137.625 L 31.90625 -137.625 L 31.90625 -135.53125 C 30.65625 -135.53125 29.4375 -135.078125 28.25 -134.171875 C 27.070312 -133.273438 26.484375 -131.992188 26.484375 -130.328125 Z M 26.484375 -130.328125 "/></g></g></g><g fill="#ffffff" fill-opacity="1"><g transform="translate(973.26217, 387.812981)"><g><path d="M 62.140625 -2.078125 L 63.1875 -2.078125 L 63.1875 0 L 33.578125 0 L 33.578125 -2.078125 L 34.609375 -2.078125 C 35.722656 -2.078125 36.695312 -2.492188 37.53125 -3.328125 C 38.363281 -4.171875 39.09375 -5.144531 39.71875 -6.25 C 40.34375 -7.363281 40.796875 -8.582031 41.078125 -9.90625 C 41.359375 -11.226562 41.5 -12.441406 41.5 -13.546875 L 41.5 -129.90625 L 17.3125 -129.90625 C 15.082031 -129.90625 13.132812 -129.414062 11.46875 -128.4375 C 9.800781 -127.46875 8.410156 -126.253906 7.296875 -124.796875 C 6.179688 -123.335938 5.347656 -121.738281 4.796875 -120 C 4.242188 -118.257812 3.96875 -116.554688 3.96875 -114.890625 L 1.875 -114.890625 L 1.875 -137.625 L 95.5 -137.625 L 95.5 -114.890625 L 93.421875 -114.890625 C 93.421875 -116.554688 93.140625 -118.257812 92.578125 -120 C 92.023438 -121.738281 91.191406 -123.335938 90.078125 -124.796875 C 88.960938 -126.253906 87.570312 -127.46875 85.90625 -128.4375 C 84.238281 -129.414062 82.289062 -129.90625 80.0625 -129.90625 L 55.46875 -129.90625 L 55.46875 -13.546875 C 55.46875 -12.441406 55.601562 -11.226562 55.875 -9.90625 C 56.15625 -8.582031 56.609375 -7.363281 57.234375 -6.25 C 57.859375 -5.144531 58.550781 -4.171875 59.3125 -3.328125 C 60.082031 -2.492188 61.023438 -2.078125 62.140625 -2.078125 Z M 62.140625 -2.078125 "/></g></g></g><g fill="#ffffff" fill-opacity="1"><g transform="translate(1066.677521, 387.812981)"><g><path d="M 9.390625 -137.625 L 39 -137.625 L 39 -135.53125 L 37.953125 -135.53125 C 36.835938 -135.53125 35.863281 -135.144531 35.03125 -134.375 C 34.195312 -133.613281 33.46875 -132.675781 32.84375 -131.5625 C 32.21875 -130.457031 31.765625 -129.28125 31.484375 -128.03125 C 31.203125 -126.78125 31.0625 -125.664062 31.0625 -124.6875 L 31.0625 -42.328125 C 31.0625 -36.910156 31.617188 -31.90625 32.734375 -27.3125 C 33.847656 -22.726562 35.722656 -18.765625 38.359375 -15.421875 C 41.003906 -12.085938 44.476562 -9.484375 48.78125 -7.609375 C 53.09375 -5.734375 58.378906 -4.796875 64.640625 -4.796875 C 71.585938 -4.796875 77.144531 -5.90625 81.3125 -8.125 C 85.488281 -10.351562 88.6875 -13.238281 90.90625 -16.78125 C 93.132812 -20.332031 94.59375 -24.332031 95.28125 -28.78125 C 95.976562 -33.226562 96.328125 -37.601562 96.328125 -41.90625 L 96.328125 -124.6875 C 96.328125 -125.664062 96.1875 -126.78125 95.90625 -128.03125 C 95.632812 -129.28125 95.1875 -130.457031 94.5625 -131.5625 C 93.9375 -132.675781 93.207031 -133.613281 92.375 -134.375 C 91.539062 -135.144531 90.632812 -135.53125 89.65625 -135.53125 L 88.625 -135.53125 L 88.625 -137.625 L 111.34375 -137.625 L 111.34375 -135.53125 L 110.3125 -135.53125 C 109.195312 -135.53125 108.253906 -135.144531 107.484375 -134.375 C 106.722656 -133.613281 106.03125 -132.675781 105.40625 -131.5625 C 104.78125 -130.457031 104.328125 -129.28125 104.046875 -128.03125 C 103.765625 -126.78125 103.625 -125.664062 103.625 -124.6875 L 103.625 -42.53125 C 103.625 -33.5 102.507812 -26.097656 100.28125 -20.328125 C 98.0625 -14.554688 95.003906 -10.003906 91.109375 -6.671875 C 87.222656 -3.335938 82.671875 -1.046875 77.453125 0.203125 C 72.242188 1.453125 66.722656 2.078125 60.890625 2.078125 C 54.628906 2.078125 48.820312 1.414062 43.46875 0.09375 C 38.125 -1.21875 33.503906 -3.539062 29.609375 -6.875 C 25.710938 -10.21875 22.648438 -14.769531 20.421875 -20.53125 C 18.203125 -26.300781 17.09375 -33.566406 17.09375 -42.328125 L 17.09375 -124.6875 C 17.09375 -125.664062 16.953125 -126.78125 16.671875 -128.03125 C 16.398438 -129.28125 15.953125 -130.457031 15.328125 -131.5625 C 14.703125 -132.675781 13.972656 -133.613281 13.140625 -134.375 C 12.304688 -135.144531 11.398438 -135.53125 10.421875 -135.53125 L 9.390625 -135.53125 Z M 9.390625 -137.625 "/></g></g></g></g></g></svg>